# xmcd
#
# Track frame offsets: 
#        150
#        23989
#        44878
#        76043
#        96636
#        114744
#        135299
#        155391
#        170174
#        197983
#        240868
#
# Disc length: 3515 seconds
#
# Revision: 0
# Processed by: cddbd v1.5.2PL0 Copyright (c) Steve Scherf et al.
# Submitted via: ExactAudioCopy v0.99pb3
#
DISCID=910db90b
DTITLE=Stacks Edward Band - The Stacks Edward Band
DYEAR=2007
DGENRE=Blues
TTITLE0=You Better Leave
TTITLE1=You Gave Me The Blues
TTITLE2=Stand To Crawl
TTITLE3=Walkin The Line
TTITLE4=Hard To Breathe
TTITLE5=When I Was Down
TTITLE6=Playing With My Heart
TTITLE7=The Run
TTITLE8=Fades To Light
TTITLE9=Trying To Be Your Man
TTITLE10=Can You See Me Now
EXTD=
EXTT0=
EXTT1=
EXTT2=
EXTT3=
EXTT4=
EXTT5=
EXTT6=
EXTT7=
EXTT8=
EXTT9=
EXTT10=
PLAYORDER=
